<?xml version="1.0" encoding="utf-8"?>
<!-- Generator: Adobe Illustrator 24.3.0, SVG Export Plug-In . SVG Version: 6.00 Build 0)  -->
<svg version="1.1" id="Ebene_1" xmlns="http://www.w3.org/2000/svg" xmlns:xlink="http://www.w3.org/1999/xlink" x="0px" y="0px"
	 viewBox="0 0 563.4 97.3" style="enable-background:new 0 0 563.4 97.3;" xml:space="preserve">
<style type="text/css">
	.st0{fill:#050505;}
	.st1{fill:url(#SVGID_1_);}
	.st2{enable-background:new    ;}
	.st3{fill:#7E46C6;}
	.st4{fill:#E27CE5;}
	.st5{fill:none;stroke:#000000;stroke-width:2;stroke-miterlimit:10;}
</style>
<g id="Ebene_17_Kopie">
	<g>
		<g>
			<polygon class="st0" points="25.3,79.3 25.3,75.7 21.7,75.7 21.7,50.9 25.3,50.9 25.3,47.3 60.9,47.3 60.9,57.5 31.9,57.5 
				31.9,69 60.9,69 60.9,79.3 			"/>
			<path class="st0" d="M59.4,48.8V56h-29v14.5h29v7.2H26.8v-3.6h-3.6V52.4h3.6v-3.6L59.4,48.8 M62.4,45.8h-3H26.8h-3v3v0.6h-0.6h-3
				v3v21.8v3h3h0.6v0.6v3h3h32.6h3v-3v-7.2v-3h-3h-26V59h26h3v-3v-7.2V45.8L62.4,45.8z"/>
		</g>
		<g>
			<polygon class="st0" points="65.2,79.3 65.2,69 90.6,69 90.6,68.4 65.2,68.4 65.2,64.8 61.5,64.8 61.5,47.3 71.8,47.3 71.8,58.2 
				90.6,58.2 90.6,47.3 100.8,47.3 100.8,75.7 97.2,75.7 97.2,79.3 			"/>
			<path class="st0" d="M99.3,48.8v25.4h-3.6v3.6h-29v-7.2h25.4v-3.6H66.7v-3.6H63V48.8h7.2v10.9H92V48.8L99.3,48.8 M102.3,45.8h-3
				h-7.2h-3v3v7.9H73.3v-7.9v-3h-3h-7.2h-3v3v14.5v3h3h0.6v0.6v3v0.6v7.2v3h3h29h3v-3v-0.6h0.6h3v-3V48.8L102.3,45.8L102.3,45.8z"/>
		</g>
		<g>
			<path class="st0" d="M101.4,79.3v-32H137v3.6h3.6v24.8H137v3.6L101.4,79.3L101.4,79.3z M130.4,69v-0.6h-18.8V69H130.4z
				 M130.4,58.2v-0.6h-18.8v0.6H130.4z"/>
			<path class="st0" d="M135.6,48.8v3.6h3.6v21.8h-3.6v3.6h-32.6v-29L135.6,48.8 M110.2,59.7h21.8V56h-21.8V59.7 M110.2,70.5h21.8
				v-3.6h-21.8V70.5 M138.6,45.8h-3h-32.6h-3v3v29v3h3h32.6h3v-3v-0.6h0.6h3v-3V52.4v-3h-3h-0.6v-0.6V45.8L138.6,45.8z"/>
		</g>
		<g>
			<path class="st0" d="M144.9,79.3v-3.6h-3.6V50.9h3.6v-3.6h32v3.6h3.6v17.5h-29V69h25.4v10.2H144.9z M170.3,58.2v-0.6h-18.8v0.6
				H170.3z"/>
			<path class="st0" d="M175.4,48.8v3.6h3.6v14.5h-29v3.6h25.4v7.2h-29v-3.6h-3.6V52.4h3.6v-3.6H175.4 M150.1,59.7h21.8V56h-21.8
				V59.7 M178.4,45.8h-3h-29h-3v3v0.6h-0.6h-3v3v21.8v3h3h0.6v0.6v3h3h29h3v-3v-7.2v-0.6h0.6h3v-3V52.4v-3h-3h-0.6v-0.6V45.8
				L178.4,45.8z"/>
		</g>
		<g>
			<path class="st0" d="M210.2,79.3v-3.6h-3.6v-3.6h-15.1v7.2h-10.2v-32h35.6v3.6h3.6v13.9h-3.6v4.2h3.6v10.2L210.2,79.3L210.2,79.3
				z M210.2,61.8v-4.2h-18.8v4.2H210.2z"/>
			<path class="st0" d="M215.3,48.8v3.6h3.6v10.9h-3.6v7.3h3.6v7.2h-7.2v-3.6h-3.6v-3.6h-18.1v7.2h-7.2v-29L215.3,48.8 M189.9,63.3
				h21.8V56h-21.8V63.3 M218.3,45.8h-3h-32.6h-3v3v29v3h3h7.2h3v-3v-4.2h12.1v0.6v3h3h0.6v0.6v3h3h7.2h3v-3v-7.2v-3h-3h-0.6v-1.2
				h0.6h3v-3V52.4v-3h-3h-0.6v-0.6V45.8L218.3,45.8z M192.9,59h15.8v1.2h-15.8V59L192.9,59z"/>
		</g>
		<g>
			<polygon class="st0" points="224.7,79.3 224.7,75.7 221.1,75.7 221.1,47.3 231.3,47.3 231.3,69 260.3,69 260.3,79.3 			"/>
			<path class="st0" d="M229.8,48.8v21.8h29v7.2h-32.6v-3.6h-3.6V48.8H229.8 M232.8,45.8h-3h-7.2h-3v3v25.4v3h3h0.6v0.6v3h3h32.6h3
				v-3v-7.2v-3h-3h-26V48.8L232.8,45.8L232.8,45.8z"/>
		</g>
		<g>
			<path class="st0" d="M264.5,79.3v-3.6h-3.6V61.8h3.6v-3.6h25.4v-0.6h-25.4V47.3h32v3.6h3.6v28.4L264.5,79.3L264.5,79.3z
				 M289.9,69v-0.6h-18.8V69H289.9z"/>
			<path class="st0" d="M295,48.8v3.6h3.6v25.4H266v-3.6h-3.6V63.3h3.6v-3.6h25.4v-3.6H266v-7.2L295,48.8 M269.7,70.5h21.8v-3.6
				h-21.8V70.5 M298,45.8h-3h-29h-3v3V56v3v0.6v0.6h-0.6h-3v3v10.9v3h3h0.6v0.6v3h3h32.6h3v-3V52.4v-3h-3H298v-0.6V45.8L298,45.8z"
				/>
		</g>
		<g>
			<polygon class="st0" points="326.2,79.3 326.2,75.7 322.5,75.7 322.5,72 318.9,72 318.9,68.4 315.3,68.4 315.3,64.8 311.7,64.8 
				311.7,61.2 311,61.2 311,79.3 300.8,79.3 300.8,47.3 314.7,47.3 314.7,50.9 318.3,50.9 318.3,54.5 321.9,54.5 321.9,58.2 
				325.5,58.2 325.5,61.8 329.2,61.8 329.2,65.4 329.8,65.4 329.8,47.3 340,47.3 340,79.3 			"/>
			<path class="st0" d="M338.5,48.8v29h-10.9v-3.6H324v-3.6h-3.6v-3.6h-3.6v-3.6h-3.6v-3.6h-3.6v18.1h-7.2v-29h10.9v3.6h3.6v3.6h3.6
				v3.6h3.6v3.6h3.6v3.6h3.6V48.8H338.5 M341.5,45.8h-3h-7.2h-3v3v11.5h-0.6h-0.6v-0.6v-3h-3h-0.6v-0.6v-3h-3h-0.6v-0.6v-3h-3h-0.6
				v-0.6v-3h-3h-10.9h-3v3v29v3h3h7.2h3v-3V66.3h0.6h0.6v0.6v3h3h0.6v0.6v3h3h0.6v0.6v3h3h0.6v0.6v3h3h10.9h3v-3v-29L341.5,45.8
				L341.5,45.8z"/>
		</g>
		<g>
			<path class="st0" d="M340.7,79.3v-32h35.6v3.6h3.6v24.8h-3.6v3.6L340.7,79.3L340.7,79.3z M369.7,69V57.5h-18.8V69H369.7z"/>
			<path class="st0" d="M374.8,48.8v3.6h3.6v21.8h-3.6v3.6h-32.6v-29L374.8,48.8 M349.4,70.5h21.8V56h-21.8V70.5 M377.8,45.8h-3
				h-32.6h-3v3v29v3h3h32.6h3v-3v-0.6h0.6h3v-3V52.4v-3h-3h-0.6v-0.6V45.8L377.8,45.8z M352.4,59h15.8v8.5h-15.8V59L352.4,59z"/>
		</g>
	</g>
	<g>
		
			<linearGradient id="SVGID_1_" gradientUnits="userSpaceOnUse" x1="200.8" y1="-146.9601" x2="200.8" y2="-117.9601" gradientTransform="matrix(1 0 0 -1 0 -69.1402)">
			<stop  offset="4.640000e-02" style="stop-color:#38C2D9"/>
			<stop  offset="0.1304" style="stop-color:#42C5DC"/>
			<stop  offset="0.2707" style="stop-color:#5BCBE3"/>
			<stop  offset="0.4488" style="stop-color:#85D6F0"/>
			<stop  offset="0.5697" style="stop-color:#A5DFF9"/>
			<stop  offset="0.6982" style="stop-color:#7FB5E0"/>
			<stop  offset="0.827" style="stop-color:#5F91CB"/>
			<stop  offset="0.9323" style="stop-color:#4B7BBE"/>
			<stop  offset="1" style="stop-color:#4473B9"/>
		</linearGradient>
		<path class="st1" d="M59.4,48.8V56h-29v14.5h29v7.2H26.8v-3.6h-3.6V52.4h3.6v-3.6L59.4,48.8L59.4,48.8z M99.3,48.8v25.4h-3.6v3.6
			h-29v-7.2h25.4v-3.6H66.7v-3.6H63V48.8h7.3v10.9h21.8V48.8L99.3,48.8L99.3,48.8z M135.6,52.4h3.6v21.8h-3.6v3.6h-32.6v-29h32.6
			V52.4z M131.9,56h-21.8v3.6h21.8V56z M131.9,66.9h-21.8v3.6h21.8V66.9z M175.4,52.4h3.6v14.5h-29v3.6h25.4v7.2h-29v-3.6h-3.6V52.4
			h3.6v-3.6h29V52.4z M171.8,56h-21.8v3.6h21.8V56z M215.3,52.4h3.6v10.9h-3.6v7.3h3.6v7.2h-7.2v-3.6h-3.6v-3.6h-18.1v7.2h-7.2v-29
			h32.6V52.4z M211.7,63.3V56h-21.8v7.2H211.7z M258.8,70.5v7.2h-32.6v-3.6h-3.6V48.8h7.2v21.8H258.8z M295,52.4h3.6v25.4H266v-3.6
			h-3.6V63.3h3.6v-3.6h25.4v-3.6H266v-7.2h29V52.4z M291.4,66.9h-21.8v3.6h21.8V66.9z M338.5,48.8v29h-10.9v-3.6H324v-3.6h-3.6v-3.6
			h-3.6v-3.6h-3.6v-3.6h-3.6v18.1h-7.2v-29h10.9v3.6h3.6v3.6h3.6v3.6h3.6v3.6h3.6v3.6h3.6V48.8H338.5z M374.8,52.4h3.6v21.8h-3.6
			v3.6h-32.6v-29h32.6V52.4z M371.2,56h-21.8v14.5h21.8V56z"/>
	</g>
	<g class="st2">
		<path class="st3" d="M458.2,86.4h-67.5V52.6h6.8v-6.8h33.8V32.4h-40.5V18.9h60.8v6.8h6.8v27h-6.8v6.8h-33.8v13.5h40.5V86.4z"/>
		<path class="st3" d="M539.2,79.6h-6.8v6.8h-60.8V18.9h60.8v6.8h6.8V79.6z M512.2,72.9V32.4h-13.5v40.5H512.2z"/>
	</g>
	<g>
		<g class="st2">
			<path class="st4" d="M464.2,79.4h-67.5V45.6h6.8v-6.8h33.8V25.4h-40.5V11.9h60.8v6.8h6.8v27h-6.8v6.8h-33.8v13.5h40.5V79.4z"/>
			<path class="st4" d="M545.2,72.6h-6.8v6.8h-60.8V11.9h60.8v6.8h6.8V72.6z M518.2,65.9V25.4h-13.5v40.5H518.2z"/>
		</g>
		<g class="st2">
			<path class="st5" d="M464.2,79.4h-67.5V45.6h6.8v-6.8h33.8V25.4h-40.5V11.9h60.8v6.8h6.8v27h-6.8v6.8h-33.8v13.5h40.5V79.4z"/>
			<path class="st5" d="M545.2,72.6h-6.8v6.8h-60.8V11.9h60.8v6.8h6.8V72.6z M518.2,65.9V25.4h-13.5v40.5H518.2z"/>
		</g>
	</g>
</g>
</svg>
